# xmcd CD database file
#
# Track frame offsets:
#	150
#	19780
#	32854
#	54842
#	74695
#	91074
#	116636
#	132196
#	144757
#	166379
#	183885
#	202670
#
# Disc length: 2936 seconds
#
# Revision: 3
# Processed by: cddbd v1.5.1PL0 Copyright (c) Steve Scherf et al.
# Submitted via: CDex 1.51
#
DISCID=970b760c
DTITLE=Diane Schuur - Timeless
DYEAR=2005
DGENRE=Jazz
TTITLE0=How Long Has This Been Going On
TTITLE1=Easy To Love
TTITLE2=Come Rain Or Come Shine
TTITLE3=How About Me
TTITLE4=Do Nothin' Till You Hear From Me
TTITLE5=A Time For Love
TTITLE6=I Can't Believe You're In Love With Me
TTITLE7=Please Send Me Someone To Love
TTITLE8=Impossible
TTITLE9=Travelin' Blues
TTITLE10=Too Late Now
TTITLE11=Don't Like Goodbyes
EXTD=YEAR: 2005
EXTT0=
EXTT1=
EXTT2=
EXTT3=
EXTT4=
EXTT5=
EXTT6=
EXTT7=
EXTT8=
EXTT9=
EXTT10=
EXTT11=
PLAYORDER=
